<?xml version="1.0" encoding="utf-8"?>
<svg viewBox="271.953 172.687 134.655 124.082" xmlns="http://www.w3.org/2000/svg">
  <defs>
    <linearGradient id="linear0" gradientUnits="userSpaceOnUse" x1="92.686279" y1="46.125" x2="92.686279" y2="116" gradientTransform="matrix(0.55814,0,0,0.55814,0,0)">
      <stop offset="0" style="stop-color:rgb(10.196079%,42.745098%,100%);stop-opacity:1;"/>
      <stop offset="1" style="stop-color:rgb(78.431374%,13.333334%,100%);stop-opacity:1;"/>
    </linearGradient>
  </defs>
  <g id="surface38901174" transform="matrix(2.603976, 0, 0, 2.769645, 208.636139, 107.585686)" style="">
    <path style=" stroke:none;fill-rule:nonzero;fill:url(#linear0);" d="M 48.73 25.746 C 58.34 25.746 66.531 32.898 67.988 42.258 L 71.773 42.258 C 72.633 42.258 73.414 42.711 73.863 43.465 C 74.332 44.246 74.355 45.23 73.926 46.031 L 69.711 53.906 C 69.109 55.039 67.969 55.746 66.734 55.746 C 65.496 55.746 64.355 55.039 63.758 53.91 L 59.543 46.031 C 59.113 45.23 59.137 44.246 59.602 43.465 C 60.055 42.711 60.832 42.258 61.695 42.258 L 64.961 42.258 C 63.543 34.563 56.693 29.223 48.73 28.746 C 40.003 28.224 33.028 35.023 32.23 45.246 C 31.523 54.312 39.633 61.746 48.73 61.746 C 52.137 61.746 55.402 60.715 58.184 58.773 C 58.863 58.297 59.797 58.461 60.27 59.141 C 60.746 59.82 60.582 60.754 59.902 61.23 C 56.617 63.527 52.754 64.746 48.73 64.746 C 37.98 64.746 29.23 55.996 29.23 45.246 C 29.23 34.492 37.98 25.746 48.73 25.746 Z M 66.406 52.5 C 66.574 52.82 66.887 52.824 67.063 52.492 L 70.934 45.258 L 62.527 45.258 L 66.406 52.5 Z M 66.406 52.5"/>
  </g>
</svg>