<svg xmlns="http://www.w3.org/2000/svg"  viewBox="0 0 64 64" width="64px" height="64px"><linearGradient id="kf5SzndXev_84ocvnGzv0a" x1="32" x2="32" y1="-696.833" y2="-748.017" gradientTransform="matrix(1 0 0 -1 0 -690)" gradientUnits="userSpaceOnUse"><stop offset="0" stop-color="#1a6dff"/><stop offset="1" stop-color="#c822ff"/></linearGradient><path fill="url(#kf5SzndXev_84ocvnGzv0a)" d="M50,57H14c-3.859,0-7-3.141-7-7V14c0-3.859,3.141-7,7-7h36c3.859,0,7,3.141,7,7v36	C57,53.859,53.859,57,50,57z M14,9c-2.757,0-5,2.243-5,5v36c0,2.757,2.243,5,5,5h36c2.757,0,5-2.243,5-5V14c0-2.757-2.243-5-5-5H14z"/><linearGradient id="kf5SzndXev_84ocvnGzv0b" x1="32" x2="32" y1="19.425" y2="44.305" gradientUnits="userSpaceOnUse"><stop offset="0" stop-color="#6dc7ff"/><stop offset="1" stop-color="#e6abff"/></linearGradient><path fill="url(#kf5SzndXev_84ocvnGzv0b)" d="M47.954,22.077c-1.175,0.522-2.436,0.873-3.762,1.034c1.353-0.813,2.391-2.1,2.88-3.631	c-1.265,0.752-2.667,1.298-4.158,1.592C41.721,19.795,40.02,19,38.138,19c-3.616,0-6.547,2.939-6.547,6.564	c0,0.514,0.058,1.014,0.171,1.495c-5.44-0.275-10.264-2.887-13.494-6.858c-0.564,0.971-0.885,2.099-0.885,3.301	c0,2.276,1.153,4.285,2.912,5.464c-1.074-0.034-2.082-0.33-2.965-0.823c0,0.028,0,0.054,0,0.083c0,3.181,2.256,5.831,5.248,6.436	c-0.547,0.151-1.126,0.232-1.723,0.232c-0.423,0-0.833-0.041-1.234-0.118c0.836,2.606,3.252,4.506,6.116,4.558	c-2.238,1.761-5.062,2.808-8.13,2.808c-0.529,0-1.049-0.03-1.561-0.091C18.94,43.914,22.383,45,26.08,45	c12.042,0,18.629-10.002,18.629-18.674c0-0.286-0.007-0.57-0.019-0.85C45.967,24.551,47.077,23.394,47.954,22.077z"/></svg>